<?xml version="1.0" encoding="utf-8" standalone="no"?>
<!DOCTYPE svg PUBLIC "-//W3C//DTD SVG 1.1//EN"
  "http://www.w3.org/Graphics/SVG/1.1/DTD/svg11.dtd">
<!-- Created with matplotlib (https://matplotlib.org/) -->
<svg height="360pt" version="1.1" viewBox="0 0 720 360" width="720pt" xmlns="http://www.w3.org/2000/svg" xmlns:xlink="http://www.w3.org/1999/xlink">
 <defs>
  <style type="text/css">
*{stroke-linecap:butt;stroke-linejoin:round;}
  </style>
 </defs>
 <g id="figure_1">
  <g id="patch_1">
   <path d="M 0 360 
L 720 360 
L 720 0 
L 0 0 
z
" style="fill:#ffffff;"/>
  </g>
  <g id="axes_1">
   <g id="patch_2">
    <path d="M 90 320.4 
L 648 320.4 
L 648 43.2 
L 90 43.2 
z
" style="fill:#ffffff;"/>
   </g>
   <g id="patch_3">
    <path clip-path="url(#p55b8230445)" d="M 95.873684 229.450619 
L 113.494737 229.450619 
L 113.494737 223.913917 
L 109.089474 220.197274 
L 113.494737 216.480632 
L 113.494737 212.711363 
L 95.873684 212.711363 
L 95.873684 216.480632 
L 100.278947 220.197274 
L 95.873684 223.913917 
L 95.873684 229.450619 
z
" style="fill:#ea96a3;stroke:#464646;stroke-linejoin:miter;stroke-width:0.5;"/>
   </g>
   <g id="patch_4">
    <path clip-path="url(#p55b8230445)" d="M 125.242105 229.77452 
L 142.863158 229.77452 
L 142.863158 224.693772 
L 138.457895 221.046149 
L 142.863158 217.398526 
L 142.863158 213.346117 
L 125.242105 213.346117 
L 125.242105 217.398526 
L 129.647368 221.046149 
L 125.242105 224.693772 
L 125.242105 229.77452 
z
" style="fill:#e79680;stroke:#464646;stroke-linejoin:miter;stroke-width:0.5;"/>
   </g>
   <g id="patch_5">
    <path clip-path="url(#p55b8230445)" d="M 154.610526 229.05788 
L 172.231579 229.05788 
L 172.231579 226.793441 
L 167.826316 223.976041 
L 172.231579 221.158641 
L 172.231579 216.368691 
L 154.610526 216.368691 
L 154.610526 221.158641 
L 159.015789 223.976041 
L 154.610526 226.793441 
L 154.610526 229.05788 
z
" style="fill:#d4954d;stroke:#464646;stroke-linejoin:miter;stroke-width:0.5;"/>
   </g>
   <g id="patch_6">
    <path clip-path="url(#p55b8230445)" d="M 183.978947 227.559245 
L 201.6 227.559245 
L 201.6 224.625284 
L 197.194737 221.444244 
L 201.6 218.263205 
L 201.6 213.232272 
L 183.978947 213.232272 
L 183.978947 218.263205 
L 188.384211 221.444244 
L 183.978947 224.625284 
L 183.978947 227.559245 
z
" style="fill:#bc9b4a;stroke:#464646;stroke-linejoin:miter;stroke-width:0.5;"/>
   </g>
   <g id="patch_7">
    <path clip-path="url(#p55b8230445)" d="M 213.347368 229.138435 
L 230.968421 229.138435 
L 230.968421 224.32703 
L 226.563158 220.719974 
L 230.968421 217.112917 
L 230.968421 212.892741 
L 213.347368 212.892741 
L 213.347368 217.112917 
L 217.752632 220.719974 
L 213.347368 224.32703 
L 213.347368 229.138435 
z
" style="fill:#a79e46;stroke:#464646;stroke-linejoin:miter;stroke-width:0.5;"/>
   </g>
   <g id="patch_8">
    <path clip-path="url(#p55b8230445)" d="M 242.715789 227.781123 
L 260.336842 227.781123 
L 260.336842 224.00506 
L 255.931579 220.684178 
L 260.336842 217.363295 
L 260.336842 212.824317 
L 242.715789 212.824317 
L 242.715789 217.363295 
L 247.121053 220.684178 
L 242.715789 224.00506 
L 242.715789 227.781123 
z
" style="fill:#92a446;stroke:#464646;stroke-linejoin:miter;stroke-width:0.5;"/>
   </g>
   <g id="patch_9">
    <path clip-path="url(#p55b8230445)" d="M 272.084211 226.793013 
L 289.705263 226.793013 
L 289.705263 223.699327 
L 285.3 221.196367 
L 289.705263 218.693407 
L 289.705263 215.520018 
L 272.084211 215.520018 
L 272.084211 218.693407 
L 276.489474 221.196367 
L 272.084211 223.699327 
L 272.084211 226.793013 
z
" style="fill:#73ab47;stroke:#464646;stroke-linejoin:miter;stroke-width:0.5;"/>
   </g>
   <g id="patch_10">
    <path clip-path="url(#p55b8230445)" d="M 301.452632 225.169994 
L 319.073684 225.169994 
L 319.073684 224.320752 
L 314.668421 221.738451 
L 319.073684 219.15615 
L 319.073684 213.53966 
L 301.452632 213.53966 
L 301.452632 219.15615 
L 305.857895 221.738451 
L 301.452632 224.320752 
L 301.452632 225.169994 
z
" style="fill:#48af6c;stroke:#464646;stroke-linejoin:miter;stroke-width:0.5;"/>
   </g>
   <g id="patch_11">
    <path clip-path="url(#p55b8230445)" d="M 330.821053 229.262584 
L 348.442105 229.262584 
L 348.442105 226.362477 
L 344.036842 223.773396 
L 348.442105 221.184316 
L 348.442105 217.601716 
L 330.821053 217.601716 
L 330.821053 221.184316 
L 335.226316 223.773396 
L 330.821053 226.362477 
L 330.821053 229.262584 
z
" style="fill:#4aad8c;stroke:#464646;stroke-linejoin:miter;stroke-width:0.5;"/>
   </g>
   <g id="patch_12">
    <path clip-path="url(#p55b8230445)" d="M 360.189474 229.364725 
L 377.810526 229.364725 
L 377.810526 225.97893 
L 373.405263 222.119301 
L 377.810526 218.259673 
L 377.810526 211.981479 
L 360.189474 211.981479 
L 360.189474 218.259673 
L 364.594737 222.119301 
L 360.189474 225.97893 
L 360.189474 229.364725 
z
" style="fill:#4bac9d;stroke:#464646;stroke-linejoin:miter;stroke-width:0.5;"/>
   </g>
   <g id="patch_13">
    <path clip-path="url(#p55b8230445)" d="M 389.557895 227.242021 
L 407.178947 227.242021 
L 407.178947 219.172348 
L 402.773684 215.156747 
L 407.178947 211.141145 
L 407.178947 209.156293 
L 389.557895 209.156293 
L 389.557895 211.141145 
L 393.963158 215.156747 
L 389.557895 219.172348 
L 389.557895 227.242021 
z
" style="fill:#4baaab;stroke:#464646;stroke-linejoin:miter;stroke-width:0.5;"/>
   </g>
   <g id="patch_14">
    <path clip-path="url(#p55b8230445)" d="M 418.926316 224.541389 
L 436.547368 224.541389 
L 436.547368 221.838698 
L 432.142105 218.977112 
L 436.547368 216.115525 
L 436.547368 211.653191 
L 418.926316 211.653191 
L 418.926316 216.115525 
L 423.331579 218.977112 
L 418.926316 221.838698 
L 418.926316 224.541389 
z
" style="fill:#4fabbb;stroke:#464646;stroke-linejoin:miter;stroke-width:0.5;"/>
   </g>
   <g id="patch_15">
    <path clip-path="url(#p55b8230445)" d="M 448.294737 223.623838 
L 465.915789 223.623838 
L 465.915789 221.179224 
L 461.510526 217.45632 
L 465.915789 213.733417 
L 465.915789 206.856385 
L 448.294737 206.856385 
L 448.294737 213.733417 
L 452.7 217.45632 
L 448.294737 221.179224 
L 448.294737 223.623838 
z
" style="fill:#54acd1;stroke:#464646;stroke-linejoin:miter;stroke-width:0.5;"/>
   </g>
   <g id="patch_16">
    <path clip-path="url(#p55b8230445)" d="M 477.663158 226.511908 
L 495.284211 226.511908 
L 495.284211 221.166145 
L 490.878947 217.636155 
L 495.284211 214.106166 
L 495.284211 210.613313 
L 477.663158 210.613313 
L 477.663158 214.106166 
L 482.068421 217.636155 
L 477.663158 221.166145 
L 477.663158 226.511908 
z
" style="fill:#84aee6;stroke:#464646;stroke-linejoin:miter;stroke-width:0.5;"/>
   </g>
   <g id="patch_17">
    <path clip-path="url(#p55b8230445)" d="M 507.031579 225.059326 
L 524.652632 225.059326 
L 524.652632 221.515446 
L 520.247368 218.263446 
L 524.652632 215.011445 
L 524.652632 210.412754 
L 507.031579 210.412754 
L 507.031579 215.011445 
L 511.436842 218.263446 
L 507.031579 221.515446 
L 507.031579 225.059326 
z
" style="fill:#afaaeb;stroke:#464646;stroke-linejoin:miter;stroke-width:0.5;"/>
   </g>
   <g id="patch_18">
    <path clip-path="url(#p55b8230445)" d="M 536.4 222.194697 
L 554.021053 222.194697 
L 554.021053 220.030946 
L 549.615789 217.485767 
L 554.021053 214.940588 
L 554.021053 210.731556 
L 536.4 210.731556 
L 536.4 214.940588 
L 540.805263 217.485767 
L 536.4 220.030946 
L 536.4 222.194697 
z
" style="fill:#c99ee9;stroke:#464646;stroke-linejoin:miter;stroke-width:0.5;"/>
   </g>
   <g id="patch_19">
    <path clip-path="url(#p55b8230445)" d="M 565.768421 224.50064 
L 583.389474 224.50064 
L 583.389474 220.248261 
L 578.984211 217.038745 
L 583.389474 213.829229 
L 583.389474 210.045413 
L 565.768421 210.045413 
L 565.768421 213.829229 
L 570.173684 217.038745 
L 565.768421 220.248261 
L 565.768421 224.50064 
z
" style="fill:#e38be7;stroke:#464646;stroke-linejoin:miter;stroke-width:0.5;"/>
   </g>
   <g id="patch_20">
    <path clip-path="url(#p55b8230445)" d="M 595.136842 225.158006 
L 612.757895 225.158006 
L 612.757895 222.357817 
L 608.352632 220.240375 
L 612.757895 218.122934 
L 612.757895 215.621337 
L 595.136842 215.621337 
L 595.136842 218.122934 
L 599.542105 220.240375 
L 595.136842 222.357817 
L 595.136842 225.158006 
z
" style="fill:#e88ecf;stroke:#464646;stroke-linejoin:miter;stroke-width:0.5;"/>
   </g>
   <g id="patch_21">
    <path clip-path="url(#p55b8230445)" d="M 624.505263 229.651351 
L 642.126316 229.651351 
L 642.126316 225.864305 
L 637.721053 222.668186 
L 642.126316 219.472067 
L 642.126316 215.256463 
L 624.505263 215.256463 
L 624.505263 219.472067 
L 628.910526 222.668186 
L 624.505263 225.864305 
L 624.505263 229.651351 
z
" style="fill:#e992ba;stroke:#464646;stroke-linejoin:miter;stroke-width:0.5;"/>
   </g>
   <g id="matplotlib.axis_1">
    <g id="xtick_1">
     <g id="line2d_1">
      <defs>
       <path d="M 0 0 
L 0 3.5 
" id="m482b9cbf89" style="stroke:#000000;stroke-width:0.8;"/>
      </defs>
      <g>
       <use style="stroke:#000000;stroke-width:0.8;" x="104.684211" xlink:href="#m482b9cbf89" y="320.4"/>
      </g>
     </g>
     <g id="text_1">
      <!-- 0.19 -->
      <defs>
       <path d="M 31.78125 66.40625 
Q 24.171875 66.40625 20.328125 58.90625 
Q 16.5 51.421875 16.5 36.375 
Q 16.5 21.390625 20.328125 13.890625 
Q 24.171875 6.390625 31.78125 6.390625 
Q 39.453125 6.390625 43.28125 13.890625 
Q 47.125 21.390625 47.125 36.375 
Q 47.125 51.421875 43.28125 58.90625 
Q 39.453125 66.40625 31.78125 66.40625 
z
M 31.78125 74.21875 
Q 44.046875 74.21875 50.515625 64.515625 
Q 56.984375 54.828125 56.984375 36.375 
Q 56.984375 17.96875 50.515625 8.265625 
Q 44.046875 -1.421875 31.78125 -1.421875 
Q 19.53125 -1.421875 13.0625 8.265625 
Q 6.59375 17.96875 6.59375 36.375 
Q 6.59375 54.828125 13.0625 64.515625 
Q 19.53125 74.21875 31.78125 74.21875 
z
" id="DejaVuSans-48"/>
       <path d="M 10.6875 12.40625 
L 21 12.40625 
L 21 0 
L 10.6875 0 
z
" id="DejaVuSans-46"/>
       <path d="M 12.40625 8.296875 
L 28.515625 8.296875 
L 28.515625 63.921875 
L 10.984375 60.40625 
L 10.984375 69.390625 
L 28.421875 72.90625 
L 38.28125 72.90625 
L 38.28125 8.296875 
L 54.390625 8.296875 
L 54.390625 0 
L 12.40625 0 
z
" id="DejaVuSans-49"/>
       <path d="M 10.984375 1.515625 
L 10.984375 10.5 
Q 14.703125 8.734375 18.5 7.8125 
Q 22.3125 6.890625 25.984375 6.890625 
Q 35.75 6.890625 40.890625 13.453125 
Q 46.046875 20.015625 46.78125 33.40625 
Q 43.953125 29.203125 39.59375 26.953125 
Q 35.25 24.703125 29.984375 24.703125 
Q 19.046875 24.703125 12.671875 31.3125 
Q 6.296875 37.9375 6.296875 49.421875 
Q 6.296875 60.640625 12.9375 67.421875 
Q 19.578125 74.21875 30.609375 74.21875 
Q 43.265625 74.21875 49.921875 64.515625 
Q 56.59375 54.828125 56.59375 36.375 
Q 56.59375 19.140625 48.40625 8.859375 
Q 40.234375 -1.421875 26.421875 -1.421875 
Q 22.703125 -1.421875 18.890625 -0.6875 
Q 15.09375 0.046875 10.984375 1.515625 
z
M 30.609375 32.421875 
Q 37.25 32.421875 41.125 36.953125 
Q 45.015625 41.5 45.015625 49.421875 
Q 45.015625 57.28125 41.125 61.84375 
Q 37.25 66.40625 30.609375 66.40625 
Q 23.96875 66.40625 20.09375 61.84375 
Q 16.21875 57.28125 16.21875 49.421875 
Q 16.21875 41.5 20.09375 36.953125 
Q 23.96875 32.421875 30.609375 32.421875 
z
" id="DejaVuSans-57"/>
      </defs>
      <g transform="translate(84.645148 341.077187)scale(0.18 -0.18)">
       <use xlink:href="#DejaVuSans-48"/>
       <use x="63.623047" xlink:href="#DejaVuSans-46"/>
       <use x="95.410156" xlink:href="#DejaVuSans-49"/>
       <use x="159.033203" xlink:href="#DejaVuSans-57"/>
      </g>
     </g>
    </g>
    <g id="xtick_2">
     <g id="line2d_2">
      <g>
       <use style="stroke:#000000;stroke-width:0.8;" x="134.052632" xlink:href="#m482b9cbf89" y="320.4"/>
      </g>
     </g>
     <g id="text_2">
      <!-- 0.18 -->
      <defs>
       <path d="M 31.78125 34.625 
Q 24.75 34.625 20.71875 30.859375 
Q 16.703125 27.09375 16.703125 20.515625 
Q 16.703125 13.921875 20.71875 10.15625 
Q 24.75 6.390625 31.78125 6.390625 
Q 38.8125 6.390625 42.859375 10.171875 
Q 46.921875 13.96875 46.921875 20.515625 
Q 46.921875 27.09375 42.890625 30.859375 
Q 38.875 34.625 31.78125 34.625 
z
M 21.921875 38.8125 
Q 15.578125 40.375 12.03125 44.71875 
Q 8.5 49.078125 8.5 55.328125 
Q 8.5 64.0625 14.71875 69.140625 
Q 20.953125 74.21875 31.78125 74.21875 
Q 42.671875 74.21875 48.875 69.140625 
Q 55.078125 64.0625 55.078125 55.328125 
Q 55.078125 49.078125 51.53125 44.71875 
Q 48 40.375 41.703125 38.8125 
Q 48.828125 37.15625 52.796875 32.3125 
Q 56.78125 27.484375 56.78125 20.515625 
Q 56.78125 9.90625 50.3125 4.234375 
Q 43.84375 -1.421875 31.78125 -1.421875 
Q 19.734375 -1.421875 13.25 4.234375 
Q 6.78125 9.90625 6.78125 20.515625 
Q 6.78125 27.484375 10.78125 32.3125 
Q 14.796875 37.15625 21.921875 38.8125 
z
M 18.3125 54.390625 
Q 18.3125 48.734375 21.84375 45.5625 
Q 25.390625 42.390625 31.78125 42.390625 
Q 38.140625 42.390625 41.71875 45.5625 
Q 45.3125 48.734375 45.3125 54.390625 
Q 45.3125 60.0625 41.71875 63.234375 
Q 38.140625 66.40625 31.78125 66.40625 
Q 25.390625 66.40625 21.84375 63.234375 
Q 18.3125 60.0625 18.3125 54.390625 
z
" id="DejaVuSans-56"/>
      </defs>
      <g transform="translate(114.013569 341.077187)scale(0.18 -0.18)">
       <use xlink:href="#DejaVuSans-48"/>
       <use x="63.623047" xlink:href="#DejaVuSans-46"/>
       <use x="95.410156" xlink:href="#DejaVuSans-49"/>
       <use x="159.033203" xlink:href="#DejaVuSans-56"/>
      </g>
     </g>
    </g>
    <g id="xtick_3">
     <g id="line2d_3">
      <g>
       <use style="stroke:#000000;stroke-width:0.8;" x="163.421053" xlink:href="#m482b9cbf89" y="320.4"/>
      </g>
     </g>
     <g id="text_3">
      <!-- 0.17 -->
      <defs>
       <path d="M 8.203125 72.90625 
L 55.078125 72.90625 
L 55.078125 68.703125 
L 28.609375 0 
L 18.3125 0 
L 43.21875 64.59375 
L 8.203125 64.59375 
z
" id="DejaVuSans-55"/>
      </defs>
      <g transform="translate(143.38199 341.077187)scale(0.18 -0.18)">
       <use xlink:href="#DejaVuSans-48"/>
       <use x="63.623047" xlink:href="#DejaVuSans-46"/>
       <use x="95.410156" xlink:href="#DejaVuSans-49"/>
       <use x="159.033203" xlink:href="#DejaVuSans-55"/>
      </g>
     </g>
    </g>
    <g id="xtick_4">
     <g id="line2d_4">
      <g>
       <use style="stroke:#000000;stroke-width:0.8;" x="192.789474" xlink:href="#m482b9cbf89" y="320.4"/>
      </g>
     </g>
     <g id="text_4">
      <!-- 0.16 -->
      <defs>
       <path d="M 33.015625 40.375 
Q 26.375 40.375 22.484375 35.828125 
Q 18.609375 31.296875 18.609375 23.390625 
Q 18.609375 15.53125 22.484375 10.953125 
Q 26.375 6.390625 33.015625 6.390625 
Q 39.65625 6.390625 43.53125 10.953125 
Q 47.40625 15.53125 47.40625 23.390625 
Q 47.40625 31.296875 43.53125 35.828125 
Q 39.65625 40.375 33.015625 40.375 
z
M 52.59375 71.296875 
L 52.59375 62.3125 
Q 48.875 64.0625 45.09375 64.984375 
Q 41.3125 65.921875 37.59375 65.921875 
Q 27.828125 65.921875 22.671875 59.328125 
Q 17.53125 52.734375 16.796875 39.40625 
Q 19.671875 43.65625 24.015625 45.921875 
Q 28.375 48.1875 33.59375 48.1875 
Q 44.578125 48.1875 50.953125 41.515625 
Q 57.328125 34.859375 57.328125 23.390625 
Q 57.328125 12.15625 50.6875 5.359375 
Q 44.046875 -1.421875 33.015625 -1.421875 
Q 20.359375 -1.421875 13.671875 8.265625 
Q 6.984375 17.96875 6.984375 36.375 
Q 6.984375 53.65625 15.1875 63.9375 
Q 23.390625 74.21875 37.203125 74.21875 
Q 40.921875 74.21875 44.703125 73.484375 
Q 48.484375 72.75 52.59375 71.296875 
z
" id="DejaVuSans-54"/>
      </defs>
      <g transform="translate(172.750411 341.077187)scale(0.18 -0.18)">
       <use xlink:href="#DejaVuSans-48"/>
       <use x="63.623047" xlink:href="#DejaVuSans-46"/>
       <use x="95.410156" xlink:href="#DejaVuSans-49"/>
       <use x="159.033203" xlink:href="#DejaVuSans-54"/>
      </g>
     </g>
    </g>
    <g id="xtick_5">
     <g id="line2d_5">
      <g>
       <use style="stroke:#000000;stroke-width:0.8;" x="222.157895" xlink:href="#m482b9cbf89" y="320.4"/>
      </g>
     </g>
     <g id="text_5">
      <!-- 0.15 -->
      <defs>
       <path d="M 10.796875 72.90625 
L 49.515625 72.90625 
L 49.515625 64.59375 
L 19.828125 64.59375 
L 19.828125 46.734375 
Q 21.96875 47.46875 24.109375 47.828125 
Q 26.265625 48.1875 28.421875 48.1875 
Q 40.625 48.1875 47.75 41.5 
Q 54.890625 34.8125 54.890625 23.390625 
Q 54.890625 11.625 47.5625 5.09375 
Q 40.234375 -1.421875 26.90625 -1.421875 
Q 22.3125 -1.421875 17.546875 -0.640625 
Q 12.796875 0.140625 7.71875 1.703125 
L 7.71875 11.625 
Q 12.109375 9.234375 16.796875 8.0625 
Q 21.484375 6.890625 26.703125 6.890625 
Q 35.15625 6.890625 40.078125 11.328125 
Q 45.015625 15.765625 45.015625 23.390625 
Q 45.015625 31 40.078125 35.4375 
Q 35.15625 39.890625 26.703125 39.890625 
Q 22.75 39.890625 18.8125 39.015625 
Q 14.890625 38.140625 10.796875 36.28125 
z
" id="DejaVuSans-53"/>
      </defs>
      <g transform="translate(202.118832 341.077187)scale(0.18 -0.18)">
       <use xlink:href="#DejaVuSans-48"/>
       <use x="63.623047" xlink:href="#DejaVuSans-46"/>
       <use x="95.410156" xlink:href="#DejaVuSans-49"/>
       <use x="159.033203" xlink:href="#DejaVuSans-53"/>
      </g>
     </g>
    </g>
    <g id="xtick_6">
     <g id="line2d_6">
      <g>
       <use style="stroke:#000000;stroke-width:0.8;" x="251.526316" xlink:href="#m482b9cbf89" y="320.4"/>
      </g>
     </g>
     <g id="text_6">
      <!-- 0.14 -->
      <defs>
       <path d="M 37.796875 64.3125 
L 12.890625 25.390625 
L 37.796875 25.390625 
z
M 35.203125 72.90625 
L 47.609375 72.90625 
L 47.609375 25.390625 
L 58.015625 25.390625 
L 58.015625 17.1875 
L 47.609375 17.1875 
L 47.609375 0 
L 37.796875 0 
L 37.796875 17.1875 
L 4.890625 17.1875 
L 4.890625 26.703125 
z
" id="DejaVuSans-52"/>
      </defs>
      <g transform="translate(231.487253 341.077187)scale(0.18 -0.18)">
       <use xlink:href="#DejaVuSans-48"/>
       <use x="63.623047" xlink:href="#DejaVuSans-46"/>
       <use x="95.410156" xlink:href="#DejaVuSans-49"/>
       <use x="159.033203" xlink:href="#DejaVuSans-52"/>
      </g>
     </g>
    </g>
    <g id="xtick_7">
     <g id="line2d_7">
      <g>
       <use style="stroke:#000000;stroke-width:0.8;" x="280.894737" xlink:href="#m482b9cbf89" y="320.4"/>
      </g>
     </g>
     <g id="text_7">
      <!-- 0.13 -->
      <defs>
       <path d="M 40.578125 39.3125 
Q 47.65625 37.796875 51.625 33 
Q 55.609375 28.21875 55.609375 21.1875 
Q 55.609375 10.40625 48.1875 4.484375 
Q 40.765625 -1.421875 27.09375 -1.421875 
Q 22.515625 -1.421875 17.65625 -0.515625 
Q 12.796875 0.390625 7.625 2.203125 
L 7.625 11.71875 
Q 11.71875 9.328125 16.59375 8.109375 
Q 21.484375 6.890625 26.8125 6.890625 
Q 36.078125 6.890625 40.9375 10.546875 
Q 45.796875 14.203125 45.796875 21.1875 
Q 45.796875 27.640625 41.28125 31.265625 
Q 36.765625 34.90625 28.71875 34.90625 
L 20.21875 34.90625 
L 20.21875 43.015625 
L 29.109375 43.015625 
Q 36.375 43.015625 40.234375 45.921875 
Q 44.09375 48.828125 44.09375 54.296875 
Q 44.09375 59.90625 40.109375 62.90625 
Q 36.140625 65.921875 28.71875 65.921875 
Q 24.65625 65.921875 20.015625 65.03125 
Q 15.375 64.15625 9.8125 62.3125 
L 9.8125 71.09375 
Q 15.4375 72.65625 20.34375 73.4375 
Q 25.25 74.21875 29.59375 74.21875 
Q 40.828125 74.21875 47.359375 69.109375 
Q 53.90625 64.015625 53.90625 55.328125 
Q 53.90625 49.265625 50.4375 45.09375 
Q 46.96875 40.921875 40.578125 39.3125 
z
" id="DejaVuSans-51"/>
      </defs>
      <g transform="translate(260.855674 341.077187)scale(0.18 -0.18)">
       <use xlink:href="#DejaVuSans-48"/>
       <use x="63.623047" xlink:href="#DejaVuSans-46"/>
       <use x="95.410156" xlink:href="#DejaVuSans-49"/>
       <use x="159.033203" xlink:href="#DejaVuSans-51"/>
      </g>
     </g>
    </g>
    <g id="xtick_8">
     <g id="line2d_8">
      <g>
       <use style="stroke:#000000;stroke-width:0.8;" x="310.263158" xlink:href="#m482b9cbf89" y="320.4"/>
      </g>
     </g>
     <g id="text_8">
      <!-- 0.12 -->
      <defs>
       <path d="M 19.1875 8.296875 
L 53.609375 8.296875 
L 53.609375 0 
L 7.328125 0 
L 7.328125 8.296875 
Q 12.9375 14.109375 22.625 23.890625 
Q 32.328125 33.6875 34.8125 36.53125 
Q 39.546875 41.84375 41.421875 45.53125 
Q 43.3125 49.21875 43.3125 52.78125 
Q 43.3125 58.59375 39.234375 62.25 
Q 35.15625 65.921875 28.609375 65.921875 
Q 23.96875 65.921875 18.8125 64.3125 
Q 13.671875 62.703125 7.8125 59.421875 
L 7.8125 69.390625 
Q 13.765625 71.78125 18.9375 73 
Q 24.125 74.21875 28.421875 74.21875 
Q 39.75 74.21875 46.484375 68.546875 
Q 53.21875 62.890625 53.21875 53.421875 
Q 53.21875 48.921875 51.53125 44.890625 
Q 49.859375 40.875 45.40625 35.40625 
Q 44.1875 33.984375 37.640625 27.21875 
Q 31.109375 20.453125 19.1875 8.296875 
z
" id="DejaVuSans-50"/>
      </defs>
      <g transform="translate(290.224095 341.077187)scale(0.18 -0.18)">
       <use xlink:href="#DejaVuSans-48"/>
       <use x="63.623047" xlink:href="#DejaVuSans-46"/>
       <use x="95.410156" xlink:href="#DejaVuSans-49"/>
       <use x="159.033203" xlink:href="#DejaVuSans-50"/>
      </g>
     </g>
    </g>
    <g id="xtick_9">
     <g id="line2d_9">
      <g>
       <use style="stroke:#000000;stroke-width:0.8;" x="339.631579" xlink:href="#m482b9cbf89" y="320.4"/>
      </g>
     </g>
     <g id="text_9">
      <!-- 0.11 -->
      <g transform="translate(319.592516 341.077187)scale(0.18 -0.18)">
       <use xlink:href="#DejaVuSans-48"/>
       <use x="63.623047" xlink:href="#DejaVuSans-46"/>
       <use x="95.410156" xlink:href="#DejaVuSans-49"/>
       <use x="159.033203" xlink:href="#DejaVuSans-49"/>
      </g>
     </g>
    </g>
    <g id="xtick_10">
     <g id="line2d_10">
      <g>
       <use style="stroke:#000000;stroke-width:0.8;" x="369" xlink:href="#m482b9cbf89" y="320.4"/>
      </g>
     </g>
     <g id="text_10">
      <!-- 1.0 -->
      <g transform="translate(354.687187 341.077187)scale(0.18 -0.18)">
       <use xlink:href="#DejaVuSans-49"/>
       <use x="63.623047" xlink:href="#DejaVuSans-46"/>
       <use x="95.410156" xlink:href="#DejaVuSans-48"/>
      </g>
     </g>
    </g>
    <g id="xtick_11">
     <g id="line2d_11">
      <g>
       <use style="stroke:#000000;stroke-width:0.8;" x="398.368421" xlink:href="#m482b9cbf89" y="320.4"/>
      </g>
     </g>
     <g id="text_11">
      <!-- 0.9 -->
      <g transform="translate(384.055609 341.077187)scale(0.18 -0.18)">
       <use xlink:href="#DejaVuSans-48"/>
       <use x="63.623047" xlink:href="#DejaVuSans-46"/>
       <use x="95.410156" xlink:href="#DejaVuSans-57"/>
      </g>
     </g>
    </g>
    <g id="xtick_12">
     <g id="line2d_12">
      <g>
       <use style="stroke:#000000;stroke-width:0.8;" x="427.736842" xlink:href="#m482b9cbf89" y="320.4"/>
      </g>
     </g>
     <g id="text_12">
      <!-- 0.8 -->
      <g transform="translate(413.42403 341.077187)scale(0.18 -0.18)">
       <use xlink:href="#DejaVuSans-48"/>
       <use x="63.623047" xlink:href="#DejaVuSans-46"/>
       <use x="95.410156" xlink:href="#DejaVuSans-56"/>
      </g>
     </g>
    </g>
    <g id="xtick_13">
     <g id="line2d_13">
      <g>
       <use style="stroke:#000000;stroke-width:0.8;" x="457.105263" xlink:href="#m482b9cbf89" y="320.4"/>
      </g>
     </g>
     <g id="text_13">
      <!-- 0.7 -->
      <g transform="translate(442.792451 341.077187)scale(0.18 -0.18)">
       <use xlink:href="#DejaVuSans-48"/>
       <use x="63.623047" xlink:href="#DejaVuSans-46"/>
       <use x="95.410156" xlink:href="#DejaVuSans-55"/>
      </g>
     </g>
    </g>
    <g id="xtick_14">
     <g id="line2d_14">
      <g>
       <use style="stroke:#000000;stroke-width:0.8;" x="486.473684" xlink:href="#m482b9cbf89" y="320.4"/>
      </g>
     </g>
     <g id="text_14">
      <!-- 0.6 -->
      <g transform="translate(472.160872 341.077187)scale(0.18 -0.18)">
       <use xlink:href="#DejaVuSans-48"/>
       <use x="63.623047" xlink:href="#DejaVuSans-46"/>
       <use x="95.410156" xlink:href="#DejaVuSans-54"/>
      </g>
     </g>
    </g>
    <g id="xtick_15">
     <g id="line2d_15">
      <g>
       <use style="stroke:#000000;stroke-width:0.8;" x="515.842105" xlink:href="#m482b9cbf89" y="320.4"/>
      </g>
     </g>
     <g id="text_15">
      <!-- 0.5 -->
      <g transform="translate(501.529293 341.077187)scale(0.18 -0.18)">
       <use xlink:href="#DejaVuSans-48"/>
       <use x="63.623047" xlink:href="#DejaVuSans-46"/>
       <use x="95.410156" xlink:href="#DejaVuSans-53"/>
      </g>
     </g>
    </g>
    <g id="xtick_16">
     <g id="line2d_16">
      <g>
       <use style="stroke:#000000;stroke-width:0.8;" x="545.210526" xlink:href="#m482b9cbf89" y="320.4"/>
      </g>
     </g>
     <g id="text_16">
      <!-- 0.4 -->
      <g transform="translate(530.897714 341.077187)scale(0.18 -0.18)">
       <use xlink:href="#DejaVuSans-48"/>
       <use x="63.623047" xlink:href="#DejaVuSans-46"/>
       <use x="95.410156" xlink:href="#DejaVuSans-52"/>
      </g>
     </g>
    </g>
    <g id="xtick_17">
     <g id="line2d_17">
      <g>
       <use style="stroke:#000000;stroke-width:0.8;" x="574.578947" xlink:href="#m482b9cbf89" y="320.4"/>
      </g>
     </g>
     <g id="text_17">
      <!-- 0.3 -->
      <g transform="translate(560.266135 341.077187)scale(0.18 -0.18)">
       <use xlink:href="#DejaVuSans-48"/>
       <use x="63.623047" xlink:href="#DejaVuSans-46"/>
       <use x="95.410156" xlink:href="#DejaVuSans-51"/>
      </g>
     </g>
    </g>
    <g id="xtick_18">
     <g id="line2d_18">
      <g>
       <use style="stroke:#000000;stroke-width:0.8;" x="603.947368" xlink:href="#m482b9cbf89" y="320.4"/>
      </g>
     </g>
     <g id="text_18">
      <!-- 0.2 -->
      <g transform="translate(589.634556 341.077187)scale(0.18 -0.18)">
       <use xlink:href="#DejaVuSans-48"/>
       <use x="63.623047" xlink:href="#DejaVuSans-46"/>
       <use x="95.410156" xlink:href="#DejaVuSans-50"/>
      </g>
     </g>
    </g>
    <g id="xtick_19">
     <g id="line2d_19">
      <g>
       <use style="stroke:#000000;stroke-width:0.8;" x="633.315789" xlink:href="#m482b9cbf89" y="320.4"/>
      </g>
     </g>
     <g id="text_19">
      <!-- 0.1 -->
      <g transform="translate(619.002977 341.077187)scale(0.18 -0.18)">
       <use xlink:href="#DejaVuSans-48"/>
       <use x="63.623047" xlink:href="#DejaVuSans-46"/>
       <use x="95.410156" xlink:href="#DejaVuSans-49"/>
      </g>
     </g>
    </g>
   </g>
   <g id="matplotlib.axis_2">
    <g id="ytick_1">
     <g id="line2d_20">
      <defs>
       <path d="M 0 0 
L -3.5 0 
" id="m848d05e8a1" style="stroke:#000000;stroke-width:0.8;"/>
      </defs>
      <g>
       <use style="stroke:#000000;stroke-width:0.8;" x="90" xlink:href="#m848d05e8a1" y="320.4"/>
      </g>
     </g>
     <g id="text_20">
      <!-- 0.0 -->
      <g transform="translate(54.374375 327.238594)scale(0.18 -0.18)">
       <use xlink:href="#DejaVuSans-48"/>
       <use x="63.623047" xlink:href="#DejaVuSans-46"/>
       <use x="95.410156" xlink:href="#DejaVuSans-48"/>
      </g>
     </g>
    </g>
    <g id="ytick_2">
     <g id="line2d_21">
      <g>
       <use style="stroke:#000000;stroke-width:0.8;" x="90" xlink:href="#m848d05e8a1" y="274.2"/>
      </g>
     </g>
     <g id="text_21">
      <!-- 0.2 -->
      <g transform="translate(54.374375 281.038594)scale(0.18 -0.18)">
       <use xlink:href="#DejaVuSans-48"/>
       <use x="63.623047" xlink:href="#DejaVuSans-46"/>
       <use x="95.410156" xlink:href="#DejaVuSans-50"/>
      </g>
     </g>
    </g>
    <g id="ytick_3">
     <g id="line2d_22">
      <g>
       <use style="stroke:#000000;stroke-width:0.8;" x="90" xlink:href="#m848d05e8a1" y="228"/>
      </g>
     </g>
     <g id="text_22">
      <!-- 0.4 -->
      <g transform="translate(54.374375 234.838594)scale(0.18 -0.18)">
       <use xlink:href="#DejaVuSans-48"/>
       <use x="63.623047" xlink:href="#DejaVuSans-46"/>
       <use x="95.410156" xlink:href="#DejaVuSans-52"/>
      </g>
     </g>
    </g>
    <g id="ytick_4">
     <g id="line2d_23">
      <g>
       <use style="stroke:#000000;stroke-width:0.8;" x="90" xlink:href="#m848d05e8a1" y="181.8"/>
      </g>
     </g>
     <g id="text_23">
      <!-- 0.6 -->
      <g transform="translate(54.374375 188.638594)scale(0.18 -0.18)">
       <use xlink:href="#DejaVuSans-48"/>
       <use x="63.623047" xlink:href="#DejaVuSans-46"/>
       <use x="95.410156" xlink:href="#DejaVuSans-54"/>
      </g>
     </g>
    </g>
    <g id="ytick_5">
     <g id="line2d_24">
      <g>
       <use style="stroke:#000000;stroke-width:0.8;" x="90" xlink:href="#m848d05e8a1" y="135.6"/>
      </g>
     </g>
     <g id="text_24">
      <!-- 0.8 -->
      <g transform="translate(54.374375 142.438594)scale(0.18 -0.18)">
       <use xlink:href="#DejaVuSans-48"/>
       <use x="63.623047" xlink:href="#DejaVuSans-46"/>
       <use x="95.410156" xlink:href="#DejaVuSans-56"/>
      </g>
     </g>
    </g>
    <g id="ytick_6">
     <g id="line2d_25">
      <g>
       <use style="stroke:#000000;stroke-width:0.8;" x="90" xlink:href="#m848d05e8a1" y="89.4"/>
      </g>
     </g>
     <g id="text_25">
      <!-- 1.0 -->
      <g transform="translate(54.374375 96.238594)scale(0.18 -0.18)">
       <use xlink:href="#DejaVuSans-49"/>
       <use x="63.623047" xlink:href="#DejaVuSans-46"/>
       <use x="95.410156" xlink:href="#DejaVuSans-48"/>
      </g>
     </g>
    </g>
    <g id="ytick_7">
     <g id="line2d_26">
      <g>
       <use style="stroke:#000000;stroke-width:0.8;" x="90" xlink:href="#m848d05e8a1" y="43.2"/>
      </g>
     </g>
     <g id="text_26">
      <!-- 1.2 -->
      <g transform="translate(54.374375 50.038594)scale(0.18 -0.18)">
       <use xlink:href="#DejaVuSans-49"/>
       <use x="63.623047" xlink:href="#DejaVuSans-46"/>
       <use x="95.410156" xlink:href="#DejaVuSans-50"/>
      </g>
     </g>
    </g>
    <g id="text_27">
     <!-- NRMSE -->
     <defs>
      <path d="M 9.8125 72.90625 
L 23.09375 72.90625 
L 55.421875 11.921875 
L 55.421875 72.90625 
L 64.984375 72.90625 
L 64.984375 0 
L 51.703125 0 
L 19.390625 60.984375 
L 19.390625 0 
L 9.8125 0 
z
" id="DejaVuSans-78"/>
      <path d="M 44.390625 34.1875 
Q 47.5625 33.109375 50.5625 29.59375 
Q 53.5625 26.078125 56.59375 19.921875 
L 66.609375 0 
L 56 0 
L 46.6875 18.703125 
Q 43.0625 26.03125 39.671875 28.421875 
Q 36.28125 30.8125 30.421875 30.8125 
L 19.671875 30.8125 
L 19.671875 0 
L 9.8125 0 
L 9.8125 72.90625 
L 32.078125 72.90625 
Q 44.578125 72.90625 50.734375 67.671875 
Q 56.890625 62.453125 56.890625 51.90625 
Q 56.890625 45.015625 53.6875 40.46875 
Q 50.484375 35.9375 44.390625 34.1875 
z
M 19.671875 64.796875 
L 19.671875 38.921875 
L 32.078125 38.921875 
Q 39.203125 38.921875 42.84375 42.21875 
Q 46.484375 45.515625 46.484375 51.90625 
Q 46.484375 58.296875 42.84375 61.546875 
Q 39.203125 64.796875 32.078125 64.796875 
z
" id="DejaVuSans-82"/>
      <path d="M 9.8125 72.90625 
L 24.515625 72.90625 
L 43.109375 23.296875 
L 61.8125 72.90625 
L 76.515625 72.90625 
L 76.515625 0 
L 66.890625 0 
L 66.890625 64.015625 
L 48.09375 14.015625 
L 38.1875 14.015625 
L 19.390625 64.015625 
L 19.390625 0 
L 9.8125 0 
z
" id="DejaVuSans-77"/>
      <path d="M 53.515625 70.515625 
L 53.515625 60.890625 
Q 47.90625 63.578125 42.921875 64.890625 
Q 37.9375 66.21875 33.296875 66.21875 
Q 25.25 66.21875 20.875 63.09375 
Q 16.5 59.96875 16.5 54.203125 
Q 16.5 49.359375 19.40625 46.890625 
Q 22.3125 44.4375 30.421875 42.921875 
L 36.375 41.703125 
Q 47.40625 39.59375 52.65625 34.296875 
Q 57.90625 29 57.90625 20.125 
Q 57.90625 9.515625 50.796875 4.046875 
Q 43.703125 -1.421875 29.984375 -1.421875 
Q 24.8125 -1.421875 18.96875 -0.25 
Q 13.140625 0.921875 6.890625 3.21875 
L 6.890625 13.375 
Q 12.890625 10.015625 18.65625 8.296875 
Q 24.421875 6.59375 29.984375 6.59375 
Q 38.421875 6.59375 43.015625 9.90625 
Q 47.609375 13.234375 47.609375 19.390625 
Q 47.609375 24.75 44.3125 27.78125 
Q 41.015625 30.8125 33.5 32.328125 
L 27.484375 33.5 
Q 16.453125 35.6875 11.515625 40.375 
Q 6.59375 45.0625 6.59375 53.421875 
Q 6.59375 63.09375 13.40625 68.65625 
Q 20.21875 74.21875 32.171875 74.21875 
Q 37.3125 74.21875 42.625 73.28125 
Q 47.953125 72.359375 53.515625 70.515625 
z
" id="DejaVuSans-83"/>
      <path d="M 9.8125 72.90625 
L 55.90625 72.90625 
L 55.90625 64.59375 
L 19.671875 64.59375 
L 19.671875 43.015625 
L 54.390625 43.015625 
L 54.390625 34.71875 
L 19.671875 34.71875 
L 19.671875 8.296875 
L 56.78125 8.296875 
L 56.78125 0 
L 9.8125 0 
z
" id="DejaVuSans-69"/>
     </defs>
     <g transform="translate(46.630938 213.9525)rotate(-90)scale(0.18 -0.18)">
      <use xlink:href="#DejaVuSans-78"/>
      <use x="74.804688" xlink:href="#DejaVuSans-82"/>
      <use x="144.287109" xlink:href="#DejaVuSans-77"/>
      <use x="230.566406" xlink:href="#DejaVuSans-83"/>
      <use x="294.042969" xlink:href="#DejaVuSans-69"/>
     </g>
    </g>
   </g>
   <g id="line2d_27">
    <path clip-path="url(#p55b8230445)" d="M 104.684211 229.450619 
L 104.684211 242.836349 
" style="fill:none;stroke:#464646;stroke-linecap:square;stroke-width:0.5;"/>
   </g>
   <g id="line2d_28">
    <path clip-path="url(#p55b8230445)" d="M 104.684211 212.711363 
L 104.684211 191.385589 
" style="fill:none;stroke:#464646;stroke-linecap:square;stroke-width:0.5;"/>
   </g>
   <g id="line2d_29">
    <path clip-path="url(#p55b8230445)" d="M 100.278947 242.836349 
L 109.089474 242.836349 
" style="fill:none;stroke:#464646;stroke-linecap:square;stroke-width:0.5;"/>
   </g>
   <g id="line2d_30">
    <path clip-path="url(#p55b8230445)" d="M 100.278947 191.385589 
L 109.089474 191.385589 
" style="fill:none;stroke:#464646;stroke-linecap:square;stroke-width:0.5;"/>
   </g>
   <g id="line2d_31"/>
   <g id="line2d_32">
    <path clip-path="url(#p55b8230445)" d="M 134.052632 229.77452 
L 134.052632 242.370728 
" style="fill:none;stroke:#464646;stroke-linecap:square;stroke-width:0.5;"/>
   </g>
   <g id="line2d_33">
    <path clip-path="url(#p55b8230445)" d="M 134.052632 213.346117 
L 134.052632 197.020788 
" style="fill:none;stroke:#464646;stroke-linecap:square;stroke-width:0.5;"/>
   </g>
   <g id="line2d_34">
    <path clip-path="url(#p55b8230445)" d="M 129.647368 242.370728 
L 138.457895 242.370728 
" style="fill:none;stroke:#464646;stroke-linecap:square;stroke-width:0.5;"/>
   </g>
   <g id="line2d_35">
    <path clip-path="url(#p55b8230445)" d="M 129.647368 197.020788 
L 138.457895 197.020788 
" style="fill:none;stroke:#464646;stroke-linecap:square;stroke-width:0.5;"/>
   </g>
   <g id="line2d_36"/>
   <g id="line2d_37">
    <path clip-path="url(#p55b8230445)" d="M 163.421053 229.05788 
L 163.421053 244.331348 
" style="fill:none;stroke:#464646;stroke-linecap:square;stroke-width:0.5;"/>
   </g>
   <g id="line2d_38">
    <path clip-path="url(#p55b8230445)" d="M 163.421053 216.368691 
L 163.421053 198.321745 
" style="fill:none;stroke:#464646;stroke-linecap:square;stroke-width:0.5;"/>
   </g>
   <g id="line2d_39">
    <path clip-path="url(#p55b8230445)" d="M 159.015789 244.331348 
L 167.826316 244.331348 
" style="fill:none;stroke:#464646;stroke-linecap:square;stroke-width:0.5;"/>
   </g>
   <g id="line2d_40">
    <path clip-path="url(#p55b8230445)" d="M 159.015789 198.321745 
L 167.826316 198.321745 
" style="fill:none;stroke:#464646;stroke-linecap:square;stroke-width:0.5;"/>
   </g>
   <g id="line2d_41"/>
   <g id="line2d_42">
    <path clip-path="url(#p55b8230445)" d="M 192.789474 227.559245 
L 192.789474 244.38304 
" style="fill:none;stroke:#464646;stroke-linecap:square;stroke-width:0.5;"/>
   </g>
   <g id="line2d_43">
    <path clip-path="url(#p55b8230445)" d="M 192.789474 213.232272 
L 192.789474 200.109106 
" style="fill:none;stroke:#464646;stroke-linecap:square;stroke-width:0.5;"/>
   </g>
   <g id="line2d_44">
    <path clip-path="url(#p55b8230445)" d="M 188.384211 244.38304 
L 197.194737 244.38304 
" style="fill:none;stroke:#464646;stroke-linecap:square;stroke-width:0.5;"/>
   </g>
   <g id="line2d_45">
    <path clip-path="url(#p55b8230445)" d="M 188.384211 200.109106 
L 197.194737 200.109106 
" style="fill:none;stroke:#464646;stroke-linecap:square;stroke-width:0.5;"/>
   </g>
   <g id="line2d_46"/>
   <g id="line2d_47">
    <path clip-path="url(#p55b8230445)" d="M 222.157895 229.138435 
L 222.157895 245.953205 
" style="fill:none;stroke:#464646;stroke-linecap:square;stroke-width:0.5;"/>
   </g>
   <g id="line2d_48">
    <path clip-path="url(#p55b8230445)" d="M 222.157895 212.892741 
L 222.157895 197.130388 
" style="fill:none;stroke:#464646;stroke-linecap:square;stroke-width:0.5;"/>
   </g>
   <g id="line2d_49">
    <path clip-path="url(#p55b8230445)" d="M 217.752632 245.953205 
L 226.563158 245.953205 
" style="fill:none;stroke:#464646;stroke-linecap:square;stroke-width:0.5;"/>
   </g>
   <g id="line2d_50">
    <path clip-path="url(#p55b8230445)" d="M 217.752632 197.130388 
L 226.563158 197.130388 
" style="fill:none;stroke:#464646;stroke-linecap:square;stroke-width:0.5;"/>
   </g>
   <g id="line2d_51"/>
   <g id="line2d_52">
    <path clip-path="url(#p55b8230445)" d="M 251.526316 227.781123 
L 251.526316 246.213685 
" style="fill:none;stroke:#464646;stroke-linecap:square;stroke-width:0.5;"/>
   </g>
   <g id="line2d_53">
    <path clip-path="url(#p55b8230445)" d="M 251.526316 212.824317 
L 251.526316 197.988803 
" style="fill:none;stroke:#464646;stroke-linecap:square;stroke-width:0.5;"/>
   </g>
   <g id="line2d_54">
    <path clip-path="url(#p55b8230445)" d="M 247.121053 246.213685 
L 255.931579 246.213685 
" style="fill:none;stroke:#464646;stroke-linecap:square;stroke-width:0.5;"/>
   </g>
   <g id="line2d_55">
    <path clip-path="url(#p55b8230445)" d="M 247.121053 197.988803 
L 255.931579 197.988803 
" style="fill:none;stroke:#464646;stroke-linecap:square;stroke-width:0.5;"/>
   </g>
   <g id="line2d_56"/>
   <g id="line2d_57">
    <path clip-path="url(#p55b8230445)" d="M 280.894737 226.793013 
L 280.894737 243.464442 
" style="fill:none;stroke:#464646;stroke-linecap:square;stroke-width:0.5;"/>
   </g>
   <g id="line2d_58">
    <path clip-path="url(#p55b8230445)" d="M 280.894737 215.520018 
L 280.894737 207.825244 
" style="fill:none;stroke:#464646;stroke-linecap:square;stroke-width:0.5;"/>
   </g>
   <g id="line2d_59">
    <path clip-path="url(#p55b8230445)" d="M 276.489474 243.464442 
L 285.3 243.464442 
" style="fill:none;stroke:#464646;stroke-linecap:square;stroke-width:0.5;"/>
   </g>
   <g id="line2d_60">
    <path clip-path="url(#p55b8230445)" d="M 276.489474 207.825244 
L 285.3 207.825244 
" style="fill:none;stroke:#464646;stroke-linecap:square;stroke-width:0.5;"/>
   </g>
   <g id="line2d_61"/>
   <g id="line2d_62">
    <path clip-path="url(#p55b8230445)" d="M 310.263158 225.169994 
L 310.263158 236.367866 
" style="fill:none;stroke:#464646;stroke-linecap:square;stroke-width:0.5;"/>
   </g>
   <g id="line2d_63">
    <path clip-path="url(#p55b8230445)" d="M 310.263158 213.53966 
L 310.263158 199.562912 
" style="fill:none;stroke:#464646;stroke-linecap:square;stroke-width:0.5;"/>
   </g>
   <g id="line2d_64">
    <path clip-path="url(#p55b8230445)" d="M 305.857895 236.367866 
L 314.668421 236.367866 
" style="fill:none;stroke:#464646;stroke-linecap:square;stroke-width:0.5;"/>
   </g>
   <g id="line2d_65">
    <path clip-path="url(#p55b8230445)" d="M 305.857895 199.562912 
L 314.668421 199.562912 
" style="fill:none;stroke:#464646;stroke-linecap:square;stroke-width:0.5;"/>
   </g>
   <g id="line2d_66"/>
   <g id="line2d_67">
    <path clip-path="url(#p55b8230445)" d="M 339.631579 229.262584 
L 339.631579 242.998843 
" style="fill:none;stroke:#464646;stroke-linecap:square;stroke-width:0.5;"/>
   </g>
   <g id="line2d_68">
    <path clip-path="url(#p55b8230445)" d="M 339.631579 217.601716 
L 339.631579 204.871717 
" style="fill:none;stroke:#464646;stroke-linecap:square;stroke-width:0.5;"/>
   </g>
   <g id="line2d_69">
    <path clip-path="url(#p55b8230445)" d="M 335.226316 242.998843 
L 344.036842 242.998843 
" style="fill:none;stroke:#464646;stroke-linecap:square;stroke-width:0.5;"/>
   </g>
   <g id="line2d_70">
    <path clip-path="url(#p55b8230445)" d="M 335.226316 204.871717 
L 344.036842 204.871717 
" style="fill:none;stroke:#464646;stroke-linecap:square;stroke-width:0.5;"/>
   </g>
   <g id="line2d_71"/>
   <g id="line2d_72">
    <path clip-path="url(#p55b8230445)" d="M 369 229.364725 
L 369 246.896398 
" style="fill:none;stroke:#464646;stroke-linecap:square;stroke-width:0.5;"/>
   </g>
   <g id="line2d_73">
    <path clip-path="url(#p55b8230445)" d="M 369 211.981479 
L 369 192.03374 
" style="fill:none;stroke:#464646;stroke-linecap:square;stroke-width:0.5;"/>
   </g>
   <g id="line2d_74">
    <path clip-path="url(#p55b8230445)" d="M 364.594737 246.896398 
L 373.405263 246.896398 
" style="fill:none;stroke:#464646;stroke-linecap:square;stroke-width:0.5;"/>
   </g>
   <g id="line2d_75">
    <path clip-path="url(#p55b8230445)" d="M 364.594737 192.03374 
L 373.405263 192.03374 
" style="fill:none;stroke:#464646;stroke-linecap:square;stroke-width:0.5;"/>
   </g>
   <g id="line2d_76"/>
   <g id="line2d_77">
    <path clip-path="url(#p55b8230445)" d="M 398.368421 227.242021 
L 398.368421 242.125269 
" style="fill:none;stroke:#464646;stroke-linecap:square;stroke-width:0.5;"/>
   </g>
   <g id="line2d_78">
    <path clip-path="url(#p55b8230445)" d="M 398.368421 209.156293 
L 398.368421 195.505216 
" style="fill:none;stroke:#464646;stroke-linecap:square;stroke-width:0.5;"/>
   </g>
   <g id="line2d_79">
    <path clip-path="url(#p55b8230445)" d="M 393.963158 242.125269 
L 402.773684 242.125269 
" style="fill:none;stroke:#464646;stroke-linecap:square;stroke-width:0.5;"/>
   </g>
   <g id="line2d_80">
    <path clip-path="url(#p55b8230445)" d="M 393.963158 195.505216 
L 402.773684 195.505216 
" style="fill:none;stroke:#464646;stroke-linecap:square;stroke-width:0.5;"/>
   </g>
   <g id="line2d_81"/>
   <g id="line2d_82">
    <path clip-path="url(#p55b8230445)" d="M 427.736842 224.541389 
L 427.736842 243.295725 
" style="fill:none;stroke:#464646;stroke-linecap:square;stroke-width:0.5;"/>
   </g>
   <g id="line2d_83">
    <path clip-path="url(#p55b8230445)" d="M 427.736842 211.653191 
L 427.736842 198.803154 
" style="fill:none;stroke:#464646;stroke-linecap:square;stroke-width:0.5;"/>
   </g>
   <g id="line2d_84">
    <path clip-path="url(#p55b8230445)" d="M 423.331579 243.295725 
L 432.142105 243.295725 
" style="fill:none;stroke:#464646;stroke-linecap:square;stroke-width:0.5;"/>
   </g>
   <g id="line2d_85">
    <path clip-path="url(#p55b8230445)" d="M 423.331579 198.803154 
L 432.142105 198.803154 
" style="fill:none;stroke:#464646;stroke-linecap:square;stroke-width:0.5;"/>
   </g>
   <g id="line2d_86"/>
   <g id="line2d_87">
    <path clip-path="url(#p55b8230445)" d="M 457.105263 223.623838 
L 457.105263 239.994604 
" style="fill:none;stroke:#464646;stroke-linecap:square;stroke-width:0.5;"/>
   </g>
   <g id="line2d_88">
    <path clip-path="url(#p55b8230445)" d="M 457.105263 206.856385 
L 457.105263 189.033848 
" style="fill:none;stroke:#464646;stroke-linecap:square;stroke-width:0.5;"/>
   </g>
   <g id="line2d_89">
    <path clip-path="url(#p55b8230445)" d="M 452.7 239.994604 
L 461.510526 239.994604 
" style="fill:none;stroke:#464646;stroke-linecap:square;stroke-width:0.5;"/>
   </g>
   <g id="line2d_90">
    <path clip-path="url(#p55b8230445)" d="M 452.7 189.033848 
L 461.510526 189.033848 
" style="fill:none;stroke:#464646;stroke-linecap:square;stroke-width:0.5;"/>
   </g>
   <g id="line2d_91"/>
   <g id="line2d_92">
    <path clip-path="url(#p55b8230445)" d="M 486.473684 226.511908 
L 486.473684 241.175598 
" style="fill:none;stroke:#464646;stroke-linecap:square;stroke-width:0.5;"/>
   </g>
   <g id="line2d_93">
    <path clip-path="url(#p55b8230445)" d="M 486.473684 210.613313 
L 486.473684 190.488765 
" style="fill:none;stroke:#464646;stroke-linecap:square;stroke-width:0.5;"/>
   </g>
   <g id="line2d_94">
    <path clip-path="url(#p55b8230445)" d="M 482.068421 241.175598 
L 490.878947 241.175598 
" style="fill:none;stroke:#464646;stroke-linecap:square;stroke-width:0.5;"/>
   </g>
   <g id="line2d_95">
    <path clip-path="url(#p55b8230445)" d="M 482.068421 190.488765 
L 490.878947 190.488765 
" style="fill:none;stroke:#464646;stroke-linecap:square;stroke-width:0.5;"/>
   </g>
   <g id="line2d_96"/>
   <g id="line2d_97">
    <path clip-path="url(#p55b8230445)" d="M 515.842105 225.059326 
L 515.842105 246.274406 
" style="fill:none;stroke:#464646;stroke-linecap:square;stroke-width:0.5;"/>
   </g>
   <g id="line2d_98">
    <path clip-path="url(#p55b8230445)" d="M 515.842105 210.412754 
L 515.842105 188.958961 
" style="fill:none;stroke:#464646;stroke-linecap:square;stroke-width:0.5;"/>
   </g>
   <g id="line2d_99">
    <path clip-path="url(#p55b8230445)" d="M 511.436842 246.274406 
L 520.247368 246.274406 
" style="fill:none;stroke:#464646;stroke-linecap:square;stroke-width:0.5;"/>
   </g>
   <g id="line2d_100">
    <path clip-path="url(#p55b8230445)" d="M 511.436842 188.958961 
L 520.247368 188.958961 
" style="fill:none;stroke:#464646;stroke-linecap:square;stroke-width:0.5;"/>
   </g>
   <g id="line2d_101"/>
   <g id="line2d_102">
    <path clip-path="url(#p55b8230445)" d="M 545.210526 222.194697 
L 545.210526 238.830022 
" style="fill:none;stroke:#464646;stroke-linecap:square;stroke-width:0.5;"/>
   </g>
   <g id="line2d_103">
    <path clip-path="url(#p55b8230445)" d="M 545.210526 210.731556 
L 545.210526 200.14753 
" style="fill:none;stroke:#464646;stroke-linecap:square;stroke-width:0.5;"/>
   </g>
   <g id="line2d_104">
    <path clip-path="url(#p55b8230445)" d="M 540.805263 238.830022 
L 549.615789 238.830022 
" style="fill:none;stroke:#464646;stroke-linecap:square;stroke-width:0.5;"/>
   </g>
   <g id="line2d_105">
    <path clip-path="url(#p55b8230445)" d="M 540.805263 200.14753 
L 549.615789 200.14753 
" style="fill:none;stroke:#464646;stroke-linecap:square;stroke-width:0.5;"/>
   </g>
   <g id="line2d_106"/>
   <g id="line2d_107">
    <path clip-path="url(#p55b8230445)" d="M 574.578947 224.50064 
L 574.578947 239.122018 
" style="fill:none;stroke:#464646;stroke-linecap:square;stroke-width:0.5;"/>
   </g>
   <g id="line2d_108">
    <path clip-path="url(#p55b8230445)" d="M 574.578947 210.045413 
L 574.578947 194.255402 
" style="fill:none;stroke:#464646;stroke-linecap:square;stroke-width:0.5;"/>
   </g>
   <g id="line2d_109">
    <path clip-path="url(#p55b8230445)" d="M 570.173684 239.122018 
L 578.984211 239.122018 
" style="fill:none;stroke:#464646;stroke-linecap:square;stroke-width:0.5;"/>
   </g>
   <g id="line2d_110">
    <path clip-path="url(#p55b8230445)" d="M 570.173684 194.255402 
L 578.984211 194.255402 
" style="fill:none;stroke:#464646;stroke-linecap:square;stroke-width:0.5;"/>
   </g>
   <g id="line2d_111"/>
   <g id="line2d_112">
    <path clip-path="url(#p55b8230445)" d="M 603.947368 225.158006 
L 603.947368 238.851212 
" style="fill:none;stroke:#464646;stroke-linecap:square;stroke-width:0.5;"/>
   </g>
   <g id="line2d_113">
    <path clip-path="url(#p55b8230445)" d="M 603.947368 215.621337 
L 603.947368 201.825126 
" style="fill:none;stroke:#464646;stroke-linecap:square;stroke-width:0.5;"/>
   </g>
   <g id="line2d_114">
    <path clip-path="url(#p55b8230445)" d="M 599.542105 238.851212 
L 608.352632 238.851212 
" style="fill:none;stroke:#464646;stroke-linecap:square;stroke-width:0.5;"/>
   </g>
   <g id="line2d_115">
    <path clip-path="url(#p55b8230445)" d="M 599.542105 201.825126 
L 608.352632 201.825126 
" style="fill:none;stroke:#464646;stroke-linecap:square;stroke-width:0.5;"/>
   </g>
   <g id="line2d_116"/>
   <g id="line2d_117">
    <path clip-path="url(#p55b8230445)" d="M 633.315789 229.651351 
L 633.315789 245.855032 
" style="fill:none;stroke:#464646;stroke-linecap:square;stroke-width:0.5;"/>
   </g>
   <g id="line2d_118">
    <path clip-path="url(#p55b8230445)" d="M 633.315789 215.256463 
L 633.315789 195.94499 
" style="fill:none;stroke:#464646;stroke-linecap:square;stroke-width:0.5;"/>
   </g>
   <g id="line2d_119">
    <path clip-path="url(#p55b8230445)" d="M 628.910526 245.855032 
L 637.721053 245.855032 
" style="fill:none;stroke:#464646;stroke-linecap:square;stroke-width:0.5;"/>
   </g>
   <g id="line2d_120">
    <path clip-path="url(#p55b8230445)" d="M 628.910526 195.94499 
L 637.721053 195.94499 
" style="fill:none;stroke:#464646;stroke-linecap:square;stroke-width:0.5;"/>
   </g>
   <g id="line2d_121"/>
   <g id="line2d_122">
    <path clip-path="url(#p55b8230445)" d="M 100.278947 220.197274 
L 109.089474 220.197274 
" style="fill:none;stroke:#464646;stroke-linecap:square;stroke-width:0.5;"/>
   </g>
   <g id="line2d_123">
    <path clip-path="url(#p55b8230445)" d="M 129.647368 221.046149 
L 138.457895 221.046149 
" style="fill:none;stroke:#464646;stroke-linecap:square;stroke-width:0.5;"/>
   </g>
   <g id="line2d_124">
    <path clip-path="url(#p55b8230445)" d="M 159.015789 223.976041 
L 167.826316 223.976041 
" style="fill:none;stroke:#464646;stroke-linecap:square;stroke-width:0.5;"/>
   </g>
   <g id="line2d_125">
    <path clip-path="url(#p55b8230445)" d="M 188.384211 221.444244 
L 197.194737 221.444244 
" style="fill:none;stroke:#464646;stroke-linecap:square;stroke-width:0.5;"/>
   </g>
   <g id="line2d_126">
    <path clip-path="url(#p55b8230445)" d="M 217.752632 220.719974 
L 226.563158 220.719974 
" style="fill:none;stroke:#464646;stroke-linecap:square;stroke-width:0.5;"/>
   </g>
   <g id="line2d_127">
    <path clip-path="url(#p55b8230445)" d="M 247.121053 220.684178 
L 255.931579 220.684178 
" style="fill:none;stroke:#464646;stroke-linecap:square;stroke-width:0.5;"/>
   </g>
   <g id="line2d_128">
    <path clip-path="url(#p55b8230445)" d="M 276.489474 221.196367 
L 285.3 221.196367 
" style="fill:none;stroke:#464646;stroke-linecap:square;stroke-width:0.5;"/>
   </g>
   <g id="line2d_129">
    <path clip-path="url(#p55b8230445)" d="M 305.857895 221.738451 
L 314.668421 221.738451 
" style="fill:none;stroke:#464646;stroke-linecap:square;stroke-width:0.5;"/>
   </g>
   <g id="line2d_130">
    <path clip-path="url(#p55b8230445)" d="M 335.226316 223.773396 
L 344.036842 223.773396 
" style="fill:none;stroke:#464646;stroke-linecap:square;stroke-width:0.5;"/>
   </g>
   <g id="line2d_131">
    <path clip-path="url(#p55b8230445)" d="M 364.594737 222.119301 
L 373.405263 222.119301 
" style="fill:none;stroke:#464646;stroke-linecap:square;stroke-width:0.5;"/>
   </g>
   <g id="line2d_132">
    <path clip-path="url(#p55b8230445)" d="M 393.963158 215.156747 
L 402.773684 215.156747 
" style="fill:none;stroke:#464646;stroke-linecap:square;stroke-width:0.5;"/>
   </g>
   <g id="line2d_133">
    <path clip-path="url(#p55b8230445)" d="M 423.331579 218.977112 
L 432.142105 218.977112 
" style="fill:none;stroke:#464646;stroke-linecap:square;stroke-width:0.5;"/>
   </g>
   <g id="line2d_134">
    <path clip-path="url(#p55b8230445)" d="M 452.7 217.45632 
L 461.510526 217.45632 
" style="fill:none;stroke:#464646;stroke-linecap:square;stroke-width:0.5;"/>
   </g>
   <g id="line2d_135">
    <path clip-path="url(#p55b8230445)" d="M 482.068421 217.636155 
L 490.878947 217.636155 
" style="fill:none;stroke:#464646;stroke-linecap:square;stroke-width:0.5;"/>
   </g>
   <g id="line2d_136">
    <path clip-path="url(#p55b8230445)" d="M 511.436842 218.263446 
L 520.247368 218.263446 
" style="fill:none;stroke:#464646;stroke-linecap:square;stroke-width:0.5;"/>
   </g>
   <g id="line2d_137">
    <path clip-path="url(#p55b8230445)" d="M 540.805263 217.485767 
L 549.615789 217.485767 
" style="fill:none;stroke:#464646;stroke-linecap:square;stroke-width:0.5;"/>
   </g>
   <g id="line2d_138">
    <path clip-path="url(#p55b8230445)" d="M 570.173684 217.038745 
L 578.984211 217.038745 
" style="fill:none;stroke:#464646;stroke-linecap:square;stroke-width:0.5;"/>
   </g>
   <g id="line2d_139">
    <path clip-path="url(#p55b8230445)" d="M 599.542105 220.240375 
L 608.352632 220.240375 
" style="fill:none;stroke:#464646;stroke-linecap:square;stroke-width:0.5;"/>
   </g>
   <g id="line2d_140">
    <path clip-path="url(#p55b8230445)" d="M 628.910526 222.668186 
L 637.721053 222.668186 
" style="fill:none;stroke:#464646;stroke-linecap:square;stroke-width:0.5;"/>
   </g>
   <g id="patch_22">
    <path d="M 90 320.4 
L 90 43.2 
" style="fill:none;stroke:#000000;stroke-linecap:square;stroke-linejoin:miter;stroke-width:0.8;"/>
   </g>
   <g id="patch_23">
    <path d="M 90 320.4 
L 648 320.4 
" style="fill:none;stroke:#000000;stroke-linecap:square;stroke-linejoin:miter;stroke-width:0.8;"/>
   </g>
  </g>
 </g>
 <defs>
  <clipPath id="p55b8230445">
   <rect height="277.2" width="558" x="90" y="43.2"/>
  </clipPath>
 </defs>
</svg>
